<?xml version="1.0" encoding="UTF-8" standalone="no"?>
<svg
   xmlns:dc="http://purl.org/dc/elements/1.1/"
   xmlns:cc="http://creativecommons.org/ns#"
   xmlns:rdf="http://www.w3.org/1999/02/22-rdf-syntax-ns#"
   xmlns:svg="http://www.w3.org/2000/svg"
   xmlns="http://www.w3.org/2000/svg"
   viewBox="0 0 357.70667 175.74667"
   height="175.74667"
   width="357.70667"
   xml:space="preserve"
   id="svg2"
   version="1.1"><metadata
     id="metadata8"><rdf:RDF><cc:Work
         rdf:about=""><dc:format>image/svg+xml</dc:format><dc:type
           rdf:resource="http://purl.org/dc/dcmitype/StillImage" /></cc:Work></rdf:RDF></metadata><defs
     id="defs6"><clipPath
       id="clipPath68"
       clipPathUnits="userSpaceOnUse"><path
         id="path66"
         d="M 4.75391,830.098 1309.13,1118.7 2613.5,830.098 1309.13,1225.88 Z" /></clipPath><clipPath
       id="clipPath74"
       clipPathUnits="userSpaceOnUse"><path
         id="path72"
         d="M 4.75391,1225.88 H 2613.5 V 830.098 H 4.75391 Z" /></clipPath><linearGradient
       id="linearGradient88"
       spreadMethod="pad"
       gradientTransform="matrix(2608.74,0,0,2608.74,4.75659,1027.99)"
       gradientUnits="userSpaceOnUse"
       y2="0"
       x2="1"
       y1="0"
       x1="0"><stop
         id="stop76"
         offset="0"
         style="stop-opacity:1;stop-color:#a48749" /><stop
         id="stop78"
         offset="0.237174"
         style="stop-opacity:1;stop-color:#f5cb6f" /><stop
         id="stop80"
         offset="0.422972"
         style="stop-opacity:1;stop-color:#a48749" /><stop
         id="stop82"
         offset="0.627579"
         style="stop-opacity:1;stop-color:#f5cb6f" /><stop
         id="stop84"
         offset="0.813924"
         style="stop-opacity:1;stop-color:#a48749" /><stop
         id="stop86"
         offset="1"
         style="stop-opacity:1;stop-color:#a48749" /></linearGradient></defs><g
     transform="matrix(1.3333333,0,0,-1.3333333,0,175.74667)"
     id="g10"><g
       transform="scale(0.1)"
       id="g12"><path
         id="path14"
         style="fill:#ffffff;fill-opacity:1;fill-rule:nonzero;stroke:none"
         d="m 2118.59,682.309 h 3.9 c 3.3,0 6.32,0.168 6.32,3.957 0,3.183 -2.75,3.679 -5.28,3.679 h -4.94 z m -3.74,10.656 h 9.29 c 5.71,0 8.41,-2.258 8.41,-6.867 0,-4.336 -2.76,-6.153 -6.32,-6.543 l 6.86,-10.594 h -4.01 l -6.53,10.32 h -3.96 v -10.32 h -3.74 z m 8.03,-29.551 c 9.5,0 16.86,7.578 16.86,17.625 0,9.836 -7.36,17.422 -16.86,17.422 -9.62,0 -16.97,-7.586 -16.97,-17.422 0,-10.047 7.35,-17.625 16.97,-17.625 z m 0,38.066 c 11.2,0 20.6,-8.847 20.6,-20.441 0,-11.805 -9.4,-20.652 -20.6,-20.652 -11.27,0 -20.71,8.847 -20.71,20.652 0,11.594 9.44,20.441 20.71,20.441" /><path
         id="path16"
         style="fill:#ffffff;fill-opacity:1;fill-rule:nonzero;stroke:none"
         d="M 543.145,424.055 H 2071.92 V 698.961 H 543.145 V 424.055" /><path
         id="path18"
         style="fill:#ec1e28;fill-opacity:1;fill-rule:nonzero;stroke:none"
         d="M 552.352,433.164 H 809.059 V 689.859 H 552.352 V 433.164" /><path
         id="path20"
         style="fill:#100f0d;fill-opacity:1;fill-rule:nonzero;stroke:none"
         d="M 2062.74,433.191 817.586,433.223 V 689.789 H 2062.74 V 433.191" /><path
         id="path22"
         style="fill:#ffffff;fill-opacity:1;fill-rule:nonzero;stroke:none"
         d="m 968.566,642.461 c -8.832,3.176 -20.964,4.773 -36.062,4.773 H 869.02 v -9.336 h 8.656 c 5.629,0 9.695,-1.484 12.457,-4.597 0.996,-1.153 2.699,-5.078 2.699,-18.02 V 506.863 c 0,-11.824 -1.301,-15.625 -2.07,-16.824 -2.578,-3.887 -6.848,-5.801 -13.086,-5.801 h -8.656 v -9.316 h 76.265 v 9.316 h -8.742 c -5.617,0 -9.605,1.492 -12.227,4.571 -1.109,1.211 -2.843,5.105 -2.843,18.054 v 45.774 c 4.207,-0.879 8.34,-1.582 12.222,-2.102 4.793,-0.613 9.278,-0.926 13.297,-0.926 16.867,0 30.235,4.579 39.59,13.582 9.406,9.028 14.168,20.852 14.168,35.168 0,10.606 -3.156,19.895 -9.391,27.637 -6.156,7.688 -13.816,13.223 -22.793,16.465 m -47.093,-11.77 c 5.433,1.223 10.015,1.887 13.519,1.887 6.356,0 12.067,-1.465 17.02,-4.324 4.906,-2.832 8.758,-7.191 11.426,-12.941 2.777,-5.887 4.164,-12.344 4.164,-19.239 0,-9.914 -2.875,-18.047 -8.504,-24.226 -5.735,-6.184 -12.305,-9.192 -20.094,-9.192 -2.238,0 -5.024,0.188 -8.215,0.574 -2.746,0.372 -5.941,0.903 -9.316,1.497 v 65.964" /><path
         id="path24"
         style="fill:#ffffff;fill-opacity:1;fill-rule:nonzero;stroke:none"
         d="m 1155.67,648.27 v -9.344 h 8.65 c 5.56,0 9.61,-1.492 12.33,-4.617 1.06,-1.196 2.83,-5.2 2.83,-17.993 v -67.742 c 0,-17.336 -1.52,-29.726 -4.54,-36.855 -2.98,-6.875 -8.61,-12.664 -16.79,-17.141 -8.23,-4.539 -17.78,-6.844 -28.34,-6.844 -8.16,0 -15.12,1.426 -20.67,4.286 -5.47,2.816 -9.76,6.476 -12.65,10.785 -2.93,4.351 -4.99,10.64 -6.12,18.621 -1.18,8.191 -1.8,15.594 -1.8,21.965 v 72.925 c 0,11.008 1.43,15.395 2.62,17.122 2.44,3.703 6.54,5.488 12.53,5.488 h 8.69 v 9.344 h -76.28 v -9.344 h 8.57 c 5.46,0 9.36,-1.348 11.66,-3.965 1.66,-1.895 3.6,-6.66 3.6,-18.645 v -65.41 c 0,-20.672 1.33,-34.402 4.09,-42.027 4.11,-11.137 11.22,-20.117 21.04,-26.731 9.86,-6.582 24.32,-9.89 42.98,-9.89 17.23,0 31.06,3.465 41.21,10.32 10.16,6.848 17.05,15.254 20.54,24.934 3.44,9.468 5.15,22.84 5.15,39.824 v 67.73 c 0,11.622 1.37,15.364 2.17,16.594 3.11,4.903 7.37,7.266 13.03,7.266 h 8.64 v 9.344 h -63.14" /><path
         id="path26"
         style="fill:#ffffff;fill-opacity:1;fill-rule:nonzero;stroke:none"
         d="m 1409.32,490.828 c -5.38,3.457 -12.03,10.695 -19.69,21.485 -0.03,0.023 -25.2,34.789 -32.63,45.121 12.77,3.336 22.54,8.668 28.98,15.918 7.07,7.976 10.71,17.554 10.71,28.418 0,10.164 -3.18,19.07 -9.43,26.445 -6.14,7.273 -13.74,12.344 -22.6,15.055 -8.66,2.66 -22.12,4.027 -40.06,4.027 h -63.38 v -9.348 h 8.65 c 5.58,0 9.65,-1.515 12.35,-4.609 1.05,-1.184 2.82,-5.078 2.82,-18.02 V 506.934 c 0,-11.836 -1.36,-15.606 -2.17,-16.829 -2.54,-3.933 -6.8,-5.828 -13,-5.828 h -8.65 v -9.328 h 76.29 v 9.328 h -8.87 c -5.5,0 -9.45,1.493 -12.11,4.59 -1.09,1.199 -2.83,5.086 -2.83,18.067 v 46.32 l 1.25,-0.078 3.42,-0.063 c 2.42,0 5.38,0.071 8.85,0.207 l 56.89,-78.371 h 48.56 v 9.082 l -2.13,0.215 c -8.75,0.969 -15.87,3.149 -21.22,6.582 m -95.62,140.141 c 6.94,1.336 12.63,2.066 16.78,2.066 9.96,0 18,-3.062 24.03,-9.109 6.06,-6.106 9.02,-13.887 9.02,-23.75 0,-10.031 -3.67,-18.067 -11.22,-24.551 -7.52,-6.477 -19.03,-9.758 -34.18,-9.758 l -4.43,0.078 v 65.024" /><path
         id="path28"
         style="fill:#ffffff;fill-opacity:1;fill-rule:nonzero;stroke:none"
         d="m 1475.94,647.219 v -9.321 h 8.3 c 3.49,0 6.9,-0.894 10.12,-2.683 2.02,-1.16 3.38,-2.551 3.98,-4.082 0.64,-1.641 1.42,-5.762 1.42,-15.899 V 506.848 c 0,-12.407 -1.58,-16.34 -2.49,-17.563 -2.61,-3.426 -6.92,-5.066 -13.03,-5.066 h -8.3 v -9.348 h 76.29 v 9.348 h -8.41 c -3.46,0 -6.8,0.879 -9.91,2.629 -2.1,1.199 -3.49,2.554 -4.11,4.109 -0.62,1.641 -1.4,5.731 -1.4,15.891 v 108.386 c 0,12.395 1.56,16.297 2.53,17.539 2.65,3.457 6.87,5.125 12.89,5.125 h 8.41 v 9.321 h -76.29" /><path
         id="path30"
         style="fill:#ffffff;fill-opacity:1;fill-rule:nonzero;stroke:none"
         d="m 1796.96,647.227 h -63.13 v -9.317 h 8.21 c 5.89,0 10.16,-1.476 12.73,-4.414 1.08,-1.211 2.89,-5.105 2.89,-17.812 v -89.746 l -99.84,121.289 h -49.03 v -9.317 h 2.39 c 4.64,0 8.06,-0.344 10.19,-1.008 4.54,-1.48 8,-3.093 10.37,-4.793 2.18,-1.601 5.62,-5.097 10.03,-10.351 V 506.453 c 0,-11.695 -1.43,-15.535 -2.29,-16.812 -2.52,-3.625 -6.83,-5.403 -13.27,-5.403 h -8.26 v -9.328 h 63.17 v 9.328 h -8.38 c -5.78,0 -10.07,1.485 -12.71,4.434 -1.03,1.152 -2.78,5.027 -2.78,17.781 v 96.567 l 108,-130.825 h 7.87 v 143.489 c 0,11.699 1.45,15.554 2.3,16.796 2.54,3.653 6.83,5.43 13.19,5.43 h 8.35 v 9.317" /><path
         id="path32"
         style="fill:#ffffff;fill-opacity:1;fill-rule:nonzero;stroke:none"
         d="m 2009.04,484.246 c -6.24,0.395 -11.15,2.094 -14.54,5.07 -3.57,3.079 -7.67,10.137 -12.19,20.957 l -57.69,140.684 h -8.17 l -60.53,-138.992 c -4.99,-11.887 -9.5,-19.758 -13.47,-23.488 -0.96,-0.938 -3.84,-2.723 -12.32,-4.239 l -2,-0.351 v -8.926 h 57.4 v 9.16 l -2.22,0.125 c -9.39,0.695 -13.01,2.168 -14.44,3.274 -1.8,1.472 -2.71,3.054 -2.71,4.863 0,2.004 0.69,5.984 3.98,13.664 0,0 8.45,19.297 10.79,24.742 h 61.95 c 2.14,-5.184 9.33,-22.625 9.33,-22.625 3.15,-7.449 4.74,-12.891 4.74,-16.133 0,-1.953 -0.86,-3.554 -2.6,-4.972 -1.32,-1.075 -4.53,-2.442 -12.17,-2.813 l -2.29,-0.086 v -9.199 h 71.42 v 9.187 z m -96.17,119.902 24.18,-59.097 h -49.89 z" /><path
         id="path34"
         style="fill:#ffffff;fill-opacity:1;fill-rule:nonzero;stroke:none"
         d="M 561.531,442.285 H 799.926 V 680.707 H 561.531 V 442.285" /><path
         id="path36"
         style="fill:#ec1e28;fill-opacity:1;fill-rule:nonzero;stroke:none"
         d="m 570.691,451.543 h 73.344 v 73.352 h -73.344 v -73.352" /><path
         id="path38"
         style="fill:#ec1e28;fill-opacity:1;fill-rule:nonzero;stroke:none"
         d="m 717.402,451.543 h 73.332 v 73.352 h -73.332 v -73.352" /><path
         id="path40"
         style="fill:#ec1e28;fill-opacity:1;fill-rule:nonzero;stroke:none"
         d="m 644.035,524.813 h 73.356 v 73.363 h -73.356 v -73.363" /><path
         id="path42"
         style="fill:#ec1e28;fill-opacity:1;fill-rule:nonzero;stroke:none"
         d="m 570.691,598.145 h 73.344 v 73.304 h -73.344 v -73.304" /><path
         id="path44"
         style="fill:#ec1e28;fill-opacity:1;fill-rule:nonzero;stroke:none"
         d="m 717.402,598.145 h 73.332 v 73.304 h -73.332 v -73.304" /><path
         id="path46"
         style="fill:#fcd072;fill-opacity:1;fill-rule:nonzero;stroke:none"
         d="M 2364.03,14.6406 V 3.87109 H 2247.48 V 14.6406 h 9.07 c 25.13,0 33.94,14.8203 33.94,35.8711 0.01,79.6993 -0.03,153.7973 0.12,233.4883 0.01,10.211 -11.29,25.141 -35.01,25.141 h -7.19 c 0,1.89 0.03,6.097 0.03,10.644 h 86.63 c 73.99,-83.863 208.09,-239.0233 210.27,-241.3436 0,3.2774 0.01,128.2776 -0.03,191.6096 -0.01,18.14 0.41,39.09 -38.71,39.09 h -10.66 v 10.644 h 117.83 v -10.644 h -9.58 c -24.94,0 -36.12,-3.45 -36.13,-30.75 V 3.94922 h -17.47 C 2492.48,65.25 2318.97,268.66 2313.25,273.961 c 0,-0.25 -0.05,-150.231 0.03,-222.5196 0.05,-32.6601 19.54,-36.8008 39.8,-36.8008 h 10.95" /><path
         id="path48"
         style="fill:#fcd072;fill-opacity:1;fill-rule:nonzero;stroke:none"
         d="M 1550.11,3.94922 V 14.6289 c 7.07,0 1.35,0.0195 19.28,0.0195 17.95,0 29.05,7.2227 29.05,32.3204 0,74.8832 0.03,150.5112 -0.06,225.3832 -0.02,19.949 -5.56,36.82 -30.94,36.82 -5.38,0 -9.77,-0.043 -15.56,-0.043 v 10.656 h 153.95 v -10.656 c -10.86,0 -21.78,0.043 -32.68,-0.008 -26.83,-0.101 -26.95,-17.699 -26.95,-36 -0.01,-76.09 -0.01,-154.269 -0.01,-230.3515 0,-15.7304 4.81,-22.0078 20.14,-22.0078 22.5,0 59.25,-0.0234 87.23,-0.0234 28.01,0 51.71,14.3906 78.23,50.0117 3.86,-2.1484 4.53,-2.6016 8.4,-4.8281 -9.84,-18.6524 -22.59,-43.3008 -32.37,-61.97268 h -257.71" /><path
         id="path50"
         style="fill:#fcd072;fill-opacity:1;fill-rule:nonzero;stroke:none"
         d="m 740.809,11.3711 c -54.121,4.4375 -87.329,36.4687 -112.407,58.8086 -25.074,22.332 -62.375,56.6723 -62.375,56.6723 47.782,13.968 77.821,50.308 77.821,94.519 0,65.91 -58.606,103.707 -162.805,103.707 -37.277,0 -95.691,-2.48 -140.348,-5.293 v -10.644 c 5.496,0.328 9.543,0.539 15.215,0.539 20.211,0 41.43,-4.84 41.43,-47.461 V 63.2695 c 0,-37.289 -10.973,-48.6484 -46.902,-48.6484 h -9.743 V 3.94141 H 505.508 V 14.6211 H 492.27 c -30.411,0 -46.872,7.0078 -46.872,43.9687 v 50.9412 c 10.758,-1.179 21.43,-1.34 31.075,-1.34 18.261,0 39.336,1.969 39.336,1.969 0,0 17.781,-17.5584 61.531,-55.4881 43.738,-37.9102 59.594,-54.222681 141.293,-54.222681 6.617,0 13.551,0.179687 22.207,0.679691 z M 445.398,121.391 v 190.168 c 7.754,0.89 21.508,1.531 32.356,1.531 77.109,0 111.621,-30.27 111.621,-95.219 0,-67.082 -39.316,-97.68 -111.77,-97.68 -6.273,0 -20.074,0.309 -32.207,1.2" /><path
         id="path52"
         style="fill:#fcd072;fill-opacity:1;fill-rule:nonzero;stroke:none"
         d="m 308.195,221.379 c 0,65.902 -58.597,103.699 -162.793,103.699 -37.285,0 -95.6989,-2.48 -140.34341,-5.293 v -10.644 c 5.48051,0.328 9.53121,0.539 15.21481,0.539 20.2071,0 41.4141,-4.852 41.4141,-47.461 V 63.2813 c 0,-37.3008 -10.9687,-48.6602 -46.8984,-48.6602 H 5.05859 V 3.92969 H 169.867 V 14.6211 h -13.242 c -30.406,0 -46.875,7.0195 -46.875,43.9805 v 50.9374 c 10.766,-1.18 21.441,-1.34 31.086,-1.34 73.43,0 167.359,28.012 167.359,113.18 m -198.445,-100 v 190.18 c 7.754,0.89 21.516,1.519 32.363,1.519 77.11,0 111.614,-30.258 111.614,-95.199 0,-67.078 -39.309,-97.688 -111.77,-97.688 -6.266,0 -20.062,0.297 -32.207,1.188" /><path
         id="path54"
         style="fill:#fcd072;fill-opacity:1;fill-rule:nonzero;stroke:none"
         d="m 1509.17,221.379 c 0,65.902 -58.59,103.699 -162.8,103.699 -37.28,0 -95.7,-2.48 -140.34,-5.293 v -10.644 c 5.47,0.328 9.53,0.539 15.2,0.539 20.21,0 41.44,-4.852 41.44,-47.461 V 63.2813 c 0,-37.3008 -10.99,-48.6602 -46.91,-48.6602 h -9.73 V 3.92969 h 164.81 V 14.6211 h -13.25 c -30.4,0 -46.87,7.0195 -46.87,43.9805 v 50.9374 c 10.76,-1.18 21.43,-1.34 31.08,-1.34 73.44,0 167.37,28.012 167.37,113.18 m -198.45,-100 v 190.18 c 7.75,0.89 21.51,1.519 32.36,1.519 77.11,0 111.62,-30.258 111.62,-95.199 0,-67.078 -39.3,-97.688 -111.78,-97.688 -6.27,0 -20.06,0.297 -32.2,1.188" /><path
         id="path56"
         style="fill:#fcd072;fill-opacity:1;fill-rule:nonzero;stroke:none"
         d="m 912.621,329.941 c -106.949,0 -184.574,-72.203 -184.574,-171.66 C 728.047,68.0508 806.344,0 910.148,0 c 102.422,0 179.622,74.6719 179.622,173.66 0,87.641 -77.8,156.281 -177.149,156.281 m 7.957,-317.4097 c -79.988,0 -140.316,69.4101 -140.316,161.4377 0,57.652 31.843,143.422 119.449,143.422 81.148,0 137.839,-65.961 137.839,-160.403 0,-69.5661 -36.6,-144.4567 -116.972,-144.4567" /><path
         id="path58"
         style="fill:#fcd072;fill-opacity:1;fill-rule:nonzero;stroke:none"
         d="m 1920.99,43.0391 c -8.69,-20.8477 3.4,-28.3985 33.5,-28.3985 h 17.24 V 3.89844 H 1846.79 V 14.6406 h 3.73 c 29.75,0 38.22,16.7891 54.09,53.7578 28.82,67.0816 56.42,134.2926 85.01,201.4416 5.71,13.43 11.07,25.23 16.47,38.738 1.61,4.051 1.56,5.883 -1.27,11.207 h 50.44 c 11.16,-25.285 21.34,-48.484 32.36,-73.574 29.74,-67.832 55.06,-135.672 84.95,-203.4922 7.01,-15.9102 15.65,-28.0782 44.21,-28.0782 h 7.84 V 3.94922 H 2068 V 14.6406 h 21.66 c 26.3,0 40.43,4.0078 33.21,23.7813 -7.59,17.707 -84.22,204.6871 -101.83,244.7771 -17,-40.058 -93.51,-223.9373 -100.05,-240.1599" /><path
         id="path60"
         style="fill:#fcd072;fill-opacity:1;fill-rule:nonzero;stroke:none"
         d="m 1933.85,151.988 c 37.04,0 92.33,-35.148 131.89,-35.148 15.1,0 21.93,4.019 25.28,6.379 3.38,2.359 6.2,-5.981 4.57,-7.789 -6.01,-6.602 -19.68,-23.0198 -53.98,-23.0198 -43.12,0 -83.46,31.9878 -121.86,31.9878 -21.25,0 -40.87,-5.418 -61.82,-24.7574 l -8.15,4.8084 c 9.43,14.5 34.15,47.539 84.07,47.539" /><g
         id="g62"><g
           clip-path="url(#clipPath68)"
           id="g64"><g
             clip-path="url(#clipPath74)"
             id="g70"><path
               id="path90"
               style="fill:url(#linearGradient88);fill-opacity:1;fill-rule:nonzero;stroke:none"
               d="m 4,830 v 1 h 3 v 1 h 4 v 1 h 3 v 1 h 3 v 1 h 3 v 1 h 4 v 1 h 3 v 1 h 3 v 1 h 4 v 1 h 3 v 1 h 3 v 1 h 3 v 1 h 4 v 1 h 3 v 1 h 3 v 1 h 4 v 1 h 3 v 1 h 3 v 1 h 4 v 1 h 3 v 1 h 3 v 1 h 3 v 1 h 4 v 1 h 3 v 1 h 3 v 1 h 4 v 1 h 3 v 1 h 3 v 1 h 4 v 1 h 3 v 1 h 3 v 1 h 3 v 1 h 4 v 1 h 3 v 1 h 3 v 1 h 4 v 1 h 3 v 1 h 3 v 1 h 3 v 1 h 4 v 1 h 3 v 1 h 3 v 1 h 4 v 1 h 3 v 1 h 3 v 1 h 4 v 1 h 3 v 1 h 3 v 1 h 3 v 1 h 4 v 1 h 3 v 1 h 3 v 1 h 4 v 1 h 3 v 1 h 3 v 1 h 3 v 1 h 4 v 1 h 3 v 1 h 3 v 1 h 4 v 1 h 3 v 1 h 3 v 1 h 4 v 1 h 3 v 1 h 3 v 1 h 3 v 1 h 4 v 1 h 3 v 1 h 3 v 1 h 4 v 1 h 3 v 1 h 3 v 1 h 4 v 1 h 3 v 1 h 3 v 1 h 3 v 1 h 4 v 1 h 3 v 1 h 3 v 1 h 4 v 1 h 3 v 1 h 3 v 1 h 3 v 1 h 4 v 1 h 3 v 1 h 3 v 1 h 4 v 1 h 3 v 1 h 3 v 1 h 4 v 1 h 3 v 1 h 3 v 1 h 3 v 1 h 4 v 1 h 3 v 1 h 3 v 1 h 4 v 1 h 3 v 1 h 3 v 1 h 4 v 1 h 3 v 1 h 3 v 1 h 3 v 1 h 4 v 1 h 3 v 1 h 3 v 1 h 4 v 1 h 3 v 1 h 3 v 1 h 3 v 1 h 4 v 1 h 3 v 1 h 3 v 1 h 4 v 1 h 3 v 1 h 3 v 1 h 4 v 1 h 3 v 1 h 3 v 1 h 3 v 1 h 4 v 1 h 3 v 1 h 3 v 1 h 4 v 1 h 3 v 1 h 3 v 1 h 3 v 1 h 4 v 1 h 3 v 1 h 3 v 1 h 4 v 1 h 3 v 1 h 3 v 1 h 4 v 1 h 3 v 1 h 3 v 1 h 3 v 1 h 4 v 1 h 3 v 1 h 3 v 1 h 4 v 1 h 3 v 1 h 3 v 1 h 4 v 1 h 3 v 1 h 3 v 1 h 3 v 1 h 4 v 1 h 3 v 1 h 3 v 1 h 4 v 1 h 3 v 1 h 3 v 1 h 3 v 1 h 4 v 1 h 3 v 1 h 3 v 1 h 4 v 1 h 3 v 1 h 3 v 1 h 4 v 1 h 3 v 1 h 3 v 1 h 3 v 1 h 4 v 1 h 3 v 1 h 3 v 1 h 4 v 1 h 3 v 1 h 3 v 1 h 4 v 1 h 3 v 1 h 3 v 1 h 3 v 1 h 4 v 1 h 3 v 1 h 3 v 1 h 4 v 1 h 3 v 1 h 3 v 1 h 3 v 1 h 4 v 1 h 3 v 1 h 3 v 1 h 4 v 1 h 3 v 1 h 3 v 1 h 4 v 1 h 3 v 1 h 3 v 1 h 3 v 1 h 4 v 1 h 3 v 1 h 3 v 1 h 4 v 1 h 3 v 1 h 3 v 1 h 3 v 1 h 4 v 1 h 3 v 1 h 3 v 1 h 4 v 1 h 3 v 1 h 3 v 1 h 4 v 1 h 3 v 1 h 3 v 1 h 3 v 1 h 4 v 1 h 3 v 1 h 3 v 1 h 4 v 1 h 3 v 1 h 3 v 1 h 4 v 1 h 3 v 1 h 3 v 1 h 3 v 1 h 4 v 1 h 3 v 1 h 3 v 1 h 4 v 1 h 3 v 1 h 3 v 1 h 3 v 1 h 4 v 1 h 3 v 1 h 3 v 1 h 4 v 1 h 3 v 1 h 3 v 1 h 4 v 1 h 3 v 1 h 3 v 1 h 3 v 1 h 4 v 1 h 3 v 1 h 3 v 1 h 4 v 1 h 3 v 1 h 3 v 1 h 3 v 1 h 4 v 1 h 3 v 1 h 3 v 1 h 4 v 1 h 3 v 1 h 3 v 1 h 4 v 1 h 3 v 1 h 3 v 1 h 3 v 1 h 4 v 1 h 3 v 1 h 3 v 1 h 4 v 1 h 3 v 1 h 3 v 1 h 4 v 1 h 3 v 1 h 3 v 1 h 3 v 1 h 4 v 1 h 3 v 1 h 3 v 1 h 4 v 1 h 3 v 1 h 3 v 1 h 3 v 1 h 4 v 1 h 3 v 1 h 3 v 1 h 4 v 1 h 3 v 1 h 3 v 1 h 4 v 1 h 3 v 1 h 3 v 1 h 3 v 1 h 4 v 1 h 3 v 1 h 3 v 1 h 4 v 1 h 3 v 1 h 3 v 1 h 4 v 1 h 3 v 1 h 3 v 1 h 3 v 1 h 4 v 1 h 3 v 1 h 3 v 1 h 4 v 1 h 3 v 1 h 3 v 1 h 3 v 1 h 4 v 1 h 3 v 1 h 3 v 1 h 4 v 1 h 3 v 1 h 3 v 1 h 4 v 1 h 3 v 1 h 3 v 1 h 3 v 1 h 4 v 1 h 3 v 1 h 3 v 1 h 4 v 1 h 3 v 1 h 3 v 1 h 3 v 1 h 4 v 1 h 3 v 1 h 3 v 1 h 4 v 1 h 3 v 1 h 3 v 1 h 4 v 1 h 3 v 1 h 3 v 1 h 3 v 1 h 4 v 1 h 3 v 1 h 3 v 1 h 4 v 1 h 3 v 1 h 3 v 1 h 4 v 1 h 3 v 1 h 3 v 1 h 3 v 1 h 4 v 1 h 3 v 1 h 3 v 1 h 4 v 1 h 3 v 1 h 3 v 1 h 3 v 1 h 4 v 1 h 3 v 1 h 3 v 1 h 4 v 1 h 3 v 1 h 3 v 1 h 4 v 1 h 3 v 1 h 3 v 1 h 3 v 1 h 4 v 1 h 3 v 1 h 3 v 1 h 4 v 1 h 3 v 1 h 3 v 1 h 3 v 1 h 4 v 1 h 3 v 1 h 3 v 1 h 4 v 1 h 3 v 1 h 3 v 1 h 4 v 1 h 3 v 1 h 3 v 1 h 3 v 1 h 4 v 1 h 3 v 1 h 3 v 1 h 4 v 1 h 3 v 1 h 3 v 1 h 4 v 1 h 3 v 1 h 3 v 1 h 3 v 1 h 4 v 1 h 3 v 1 h 3 v 1 h 4 v 1 h 3 v 1 h 3 v 1 h 3 v 1 h 4 v 1 h 3 v 1 h 3 v 1 h 4 v 1 h 3 v 1 h 3 v 1 h 4 v 1 h 3 v 1 h 3 v 1 h 3 v 1 h 4 v 1 h 7 v -1 h 3 v -1 h 3 v -1 h 3 v -1 h 4 v -1 h 3 v -1 h 3 v -1 h 4 v -1 h 3 v -1 h 3 v -1 h 3 v -1 h 4 v -1 h 3 v -1 h 3 v -1 h 4 v -1 h 3 v -1 h 3 v -1 h 4 v -1 h 3 v -1 h 3 v -1 h 3 v -1 h 4 v -1 h 3 v -1 h 3 v -1 h 4 v -1 h 3 v -1 h 3 v -1 h 4 v -1 h 3 v -1 h 3 v -1 h 3 v -1 h 4 v -1 h 3 v -1 h 3 v -1 h 4 v -1 h 3 v -1 h 3 v -1 h 3 v -1 h 4 v -1 h 3 v -1 h 3 v -1 h 4 v -1 h 3 v -1 h 3 v -1 h 4 v -1 h 3 v -1 h 3 v -1 h 3 v -1 h 4 v -1 h 3 v -1 h 3 v -1 h 4 v -1 h 3 v -1 h 3 v -1 h 3 v -1 h 4 v -1 h 3 v -1 h 3 v -1 h 4 v -1 h 3 v -1 h 3 v -1 h 4 v -1 h 3 v -1 h 3 v -1 h 3 v -1 h 4 v -1 h 3 v -1 h 3 v -1 h 4 v -1 h 3 v -1 h 3 v -1 h 4 v -1 h 3 v -1 h 3 v -1 h 3 v -1 h 4 v -1 h 3 v -1 h 3 v -1 h 4 v -1 h 3 v -1 h 3 v -1 h 3 v -1 h 4 v -1 h 3 v -1 h 3 v -1 h 4 v -1 h 3 v -1 h 3 v -1 h 4 v -1 h 3 v -1 h 3 v -1 h 3 v -1 h 4 v -1 h 3 v -1 h 3 v -1 h 4 v -1 h 3 v -1 h 3 v -1 h 4 v -1 h 3 v -1 h 3 v -1 h 3 v -1 h 4 v -1 h 3 v -1 h 3 v -1 h 4 v -1 h 3 v -1 h 3 v -1 h 3 v -1 h 4 v -1 h 3 v -1 h 3 v -1 h 4 v -1 h 3 v -1 h 3 v -1 h 4 v -1 h 3 v -1 h 3 v -1 h 3 v -1 h 4 v -1 h 3 v -1 h 3 v -1 h 4 v -1 h 3 v -1 h 3 v -1 h 3 v -1 h 4 v -1 h 3 v -1 h 3 v -1 h 4 v -1 h 3 v -1 h 3 v -1 h 4 v -1 h 3 v -1 h 3 v -1 h 3 v -1 h 4 v -1 h 3 v -1 h 3 v -1 h 4 v -1 h 3 v -1 h 3 v -1 h 4 v -1 h 3 v -1 h 3 v -1 h 3 v -1 h 4 v -1 h 3 v -1 h 3 v -1 h 4 v -1 h 3 v -1 h 3 v -1 h 3 v -1 h 4 v -1 h 3 v -1 h 3 v -1 h 4 v -1 h 3 v -1 h 3 v -1 h 4 v -1 h 3 v -1 h 3 v -1 h 3 v -1 h 4 v -1 h 3 v -1 h 3 v -1 h 4 v -1 h 3 v -1 h 3 v -1 h 3 v -1 h 4 v -1 h 3 v -1 h 3 v -1 h 4 v -1 h 3 v -1 h 3 v -1 h 4 v -1 h 3 v -1 h 3 v -1 h 3 v -1 h 4 v -1 h 3 v -1 h 3 v -1 h 4 v -1 h 3 v -1 h 3 v -1 h 4 v -1 h 3 v -1 h 3 v -1 h 3 v -1 h 4 v -1 h 3 v -1 h 3 v -1 h 4 v -1 h 3 v -1 h 3 v -1 h 3 v -1 h 4 v -1 h 3 v -1 h 3 v -1 h 4 v -1 h 3 v -1 h 3 v -1 h 4 v -1 h 3 v -1 h 3 v -1 h 3 v -1 h 4 v -1 h 3 v -1 h 3 v -1 h 4 v -1 h 3 v -1 h 3 v -1 h 4 v -1 h 3 v -1 h 3 v -1 h 3 v -1 h 4 v -1 h 3 v -1 h 3 v -1 h 4 v -1 h 3 v -1 h 3 v -1 h 3 v -1 h 4 v -1 h 3 v -1 h 3 v -1 h 4 v -1 h 3 v -1 h 3 v -1 h 4 v -1 h 3 v -1 h 3 v -1 h 3 v -1 h 4 v -1 h 3 v -1 h 3 v -1 h 4 v -1 h 3 v -1 h 3 v -1 h 3 v -1 h 4 v -1 h 3 v -1 h 3 v -1 h 4 v -1 h 3 v -1 h 3 v -1 h 4 v -1 h 3 v -1 h 3 v -1 h 3 v -1 h 4 v -1 h 3 v -1 h 3 v -1 h 4 v -1 h 3 v -1 h 3 v -1 h 4 v -1 h 3 v -1 h 3 v -1 h 3 v -1 h 4 v -1 h 3 v -1 h 3 v -1 h 4 v -1 h 3 v -1 h 3 v -1 h 3 v -1 h 4 v -1 h 3 v -1 h 3 v -1 h 4 v -1 h 3 v -1 h 3 v -1 h 4 v -1 h 3 v -1 h 3 v -1 h 3 v -1 h 4 v -1 h 3 v -1 h 3 v -1 h 4 v -1 h 3 v -1 h 3 v -1 h 4 v -1 h 3 v -1 h 3 v -1 h 3 v -1 h 4 v -1 h 3 v -1 h 3 v -1 h 4 v -1 h 3 v -1 h 3 v -1 h 3 v -1 h 4 v -1 h 3 v -1 h 3 v -1 h 4 v -1 h 3 v -1 h 3 v -1 h 4 v -1 h 3 v -1 h 3 v -1 h 3 v -1 h 4 v -1 h 3 v -1 h 3 v -1 h 4 v -1 h 3 v -1 h 3 v -1 h 3 v -1 h 4 v -1 h 3 v -1 h 3 v -1 h 4 v -1 h 3 v -1 h 3 v -1 h 4 v -1 h 3 v -1 h 3 v -1 h 3 v -1 h 4 v -1 h 3 v -1 h 3 v -1 h 4 v -1 h 3 v -1 h 3 v -1 h 4 v -1 h 3 v -1 h 3 v -1 h 3 v -1 h 4 v -1 h 3 v -1 h 3 v -1 h 4 v -1 h 3 v -1 h 3 v -1 h 3 v -1 h 4 v -1 h 3 v -1 h 3 v -1 h 4 v -1 h 3 v -1 h 3 v -1 h 4 v -1 h 3 v -1 h 3 v -1 h 3 v -1 h 4 v -1 h 3 v -1 h 3 v -1 h 4 v -1 h 3 v -1 h 3 v -1 h 3 v -1 h 4 v -1 h 3 v -1 h 3 v -1 h 4 v -1 h 3 v -1 h 3 v -1 h 4 v -1 h 3 v -1 h 3 v -1 h 3 v -1 h 4 v -1 h 3 v -1 h 3 v -1 h 4 v -1 h 3 v -1 h 3 v -1 h 4 v -1 h 3 v -1 h 3 v -1 h 3 v -1 h 4 v -1 h 3 v -1 h 3 v -1 h 4 v -1 h 3 v -1 h 3 v -1 h 3 v -1 h 4 v -1 h 3 v -1 h 3 v -1 h 4 v -1 h 3 v -1 h 3 v -1 h 4 v -1 h 3 v -1 h 3 v -1 h 3 v -1 h 4 v -1 h 3 v -1 h 3 v -1 h -5 v 1 h -5 v 1 h -4 v 1 h -5 v 1 h -4 v 1 h -5 v 1 h -4 v 1 h -5 v 1 h -4 v 1 h -5 v 1 h -4 v 1 h -5 v 1 h -4 v 1 h -5 v 1 h -4 v 1 h -5 v 1 h -4 v 1 h -5 v 1 h -4 v 1 h -5 v 1 h -4 v 1 h -5 v 1 h -4 v 1 h -5 v 1 h -5 v 1 h -4 v 1 h -5 v 1 h -4 v 1 h -5 v 1 h -4 v 1 h -5 v 1 h -4 v 1 h -5 v 1 h -4 v 1 h -5 v 1 h -4 v 1 h -5 v 1 h -4 v 1 h -5 v 1 h -4 v 1 h -5 v 1 h -4 v 1 h -5 v 1 h -4 v 1 h -5 v 1 h -4 v 1 h -5 v 1 h -4 v 1 h -5 v 1 h -5 v 1 h -4 v 1 h -5 v 1 h -4 v 1 h -5 v 1 h -4 v 1 h -5 v 1 h -4 v 1 h -5 v 1 h -4 v 1 h -5 v 1 h -4 v 1 h -5 v 1 h -4 v 1 h -5 v 1 h -4 v 1 h -5 v 1 h -4 v 1 h -5 v 1 h -4 v 1 h -5 v 1 h -4 v 1 h -5 v 1 h -4 v 1 h -5 v 1 h -5 v 1 h -4 v 1 h -5 v 1 h -4 v 1 h -5 v 1 h -4 v 1 h -5 v 1 h -4 v 1 h -5 v 1 h -4 v 1 h -5 v 1 h -4 v 1 h -5 v 1 h -4 v 1 h -5 v 1 h -4 v 1 h -5 v 1 h -4 v 1 h -5 v 1 h -4 v 1 h -5 v 1 h -4 v 1 h -5 v 1 h -4 v 1 h -5 v 1 h -4 v 1 h -5 v 1 h -5 v 1 h -4 v 1 h -5 v 1 h -4 v 1 h -5 v 1 h -4 v 1 h -5 v 1 h -4 v 1 h -5 v 1 h -4 v 1 h -5 v 1 h -4 v 1 h -5 v 1 h -4 v 1 h -5 v 1 h -4 v 1 h -5 v 1 h -4 v 1 h -5 v 1 h -4 v 1 h -5 v 1 h -4 v 1 h -5 v 1 h -4 v 1 h -5 v 1 h -5 v 1 h -4 v 1 h -5 v 1 h -4 v 1 h -5 v 1 h -4 v 1 h -5 v 1 h -4 v 1 h -5 v 1 h -4 v 1 h -5 v 1 h -4 v 1 h -5 v 1 h -4 v 1 h -5 v 1 h -4 v 1 h -5 v 1 h -4 v 1 h -5 v 1 h -4 v 1 h -5 v 1 h -4 v 1 h -5 v 1 h -4 v 1 h -5 v 1 h -5 v 1 h -4 v 1 h -5 v 1 h -4 v 1 h -5 v 1 h -4 v 1 h -5 v 1 h -4 v 1 h -5 v 1 h -4 v 1 h -5 v 1 h -4 v 1 h -5 v 1 h -4 v 1 h -5 v 1 h -4 v 1 h -5 v 1 h -4 v 1 h -5 v 1 h -4 v 1 h -5 v 1 h -4 v 1 h -5 v 1 h -4 v 1 h -5 v 1 h -5 v 1 h -4 v 1 h -5 v 1 h -4 v 1 h -5 v 1 h -4 v 1 h -5 v 1 h -4 v 1 h -5 v 1 h -4 v 1 h -5 v 1 h -4 v 1 h -5 v 1 h -4 v 1 h -5 v 1 h -4 v 1 h -5 v 1 h -4 v 1 h -5 v 1 h -4 v 1 h -5 v 1 h -4 v 1 h -5 v 1 h -4 v 1 h -5 v 1 h -5 v 1 h -4 v 1 h -5 v 1 h -4 v 1 h -5 v 1 h -4 v 1 h -5 v 1 h -4 v 1 h -5 v 1 h -4 v 1 h -5 v 1 h -4 v 1 h -5 v 1 h -4 v 1 h -5 v 1 h -4 v 1 h -5 v 1 h -4 v 1 h -5 v 1 h -4 v 1 h -5 v 1 h -4 v 1 h -5 v 1 h -4 v 1 h -5 v 1 h -4 v 1 h -5 v 1 h -5 v 1 h -4 v 1 h -5 v 1 h -4 v 1 h -5 v 1 h -4 v 1 h -5 v 1 h -4 v 1 h -5 v 1 h -4 v 1 h -5 v 1 h -4 v 1 h -5 v 1 h -4 v 1 h -5 v 1 h -4 v 1 h -5 v 1 h -4 v 1 h -5 v 1 h -4 v 1 h -5 v 1 h -4 v 1 h -5 v 1 h -4 v 1 h -5 v 1 h -5 v 1 h -4 v 1 h -5 v 1 h -4 v 1 h -5 v 1 h -4 v 1 h -5 v 1 h -4 v 1 h -5 v 1 h -4 v 1 h -5 v 1 h -4 v 1 h -5 v 1 h -4 v 1 h -5 v 1 h -4 v 1 h -5 v 1 h -4 v 1 h -5 v 1 h -4 v 1 h -5 v 1 h -4 v 1 h -5 v 1 h -4 v 1 h -5 v 1 h -5 v 1 h -4 v 1 h -5 v 1 h -4 v 1 h -5 v 1 h -4 v 1 h -5 v 1 h -4 v 1 h -5 v 1 h -4 v 1 h -6 v -1 h -4 v -1 h -5 v -1 h -4 v -1 h -5 v -1 h -4 v -1 h -5 v -1 h -4 v -1 h -5 v -1 h -4 v -1 h -5 v -1 h -4 v -1 h -5 v -1 h -4 v -1 h -5 v -1 h -4 v -1 h -5 v -1 h -4 v -1 h -5 v -1 h -4 v -1 h -5 v -1 h -4 v -1 h -5 v -1 h -5 v -1 h -4 v -1 h -5 v -1 h -4 v -1 h -5 v -1 h -4 v -1 h -5 v -1 h -4 v -1 h -5 v -1 h -4 v -1 h -5 v -1 h -4 v -1 h -5 v -1 h -4 v -1 h -5 v -1 h -4 v -1 h -5 v -1 h -4 v -1 h -5 v -1 h -4 v -1 h -5 v -1 h -4 v -1 h -5 v -1 h -4 v -1 h -5 v -1 h -4 v -1 h -5 v -1 h -5 v -1 h -4 v -1 h -5 v -1 h -4 v -1 h -5 v -1 h -4 v -1 h -5 v -1 h -4 v -1 h -5 v -1 h -4 v -1 h -5 v -1 h -4 v -1 h -5 v -1 h -4 v -1 h -5 v -1 h -4 v -1 h -5 v -1 h -4 v -1 h -5 v -1 h -4 v -1 h -5 v -1 h -4 v -1 h -5 v -1 h -4 v -1 h -5 v -1 h -5 v -1 h -4 v -1 h -5 v -1 h -4 v -1 h -5 v -1 h -4 v -1 h -5 v -1 h -4 v -1 h -5 v -1 h -4 v -1 h -5 v -1 h -4 v -1 h -5 v -1 h -4 v -1 h -5 v -1 h -4 v -1 h -5 v -1 h -4 v -1 h -5 v -1 h -4 v -1 h -5 v -1 h -4 v -1 h -5 v -1 h -4 v -1 h -5 v -1 h -5 v -1 h -4 v -1 h -5 v -1 h -4 v -1 h -5 v -1 h -4 v -1 h -5 v -1 h -4 v -1 h -5 v -1 h -4 v -1 h -5 v -1 h -4 v -1 h -5 v -1 h -4 v -1 h -5 v -1 h -4 v -1 h -5 v -1 h -4 v -1 h -5 v -1 h -4 v -1 h -5 v -1 h -4 v -1 h -5 v -1 h -4 v -1 h -5 v -1 h -5 v -1 h -4 v -1 h -5 v -1 h -4 v -1 h -5 v -1 h -4 v -1 h -5 v -1 h -4 v -1 h -5 v -1 h -4 v -1 h -5 v -1 h -4 v -1 h -5 v -1 h -4 v -1 h -5 v -1 h -4 v -1 h -5 v -1 h -4 v -1 h -5 v -1 h -4 v -1 h -5 v -1 h -4 v -1 h -5 v -1 h -4 v -1 h -5 v -1 h -4 v -1 h -5 v -1 h -5 v -1 h -4 v -1 h -5 v -1 h -4 v -1 h -5 v -1 h -4 v -1 h -5 v -1 h -4 v -1 h -5 v -1 h -4 v -1 h -5 v -1 h -4 v -1 h -5 v -1 h -4 v -1 h -5 v -1 h -4 v -1 h -5 v -1 h -4 v -1 h -5 v -1 h -4 v -1 h -5 v -1 h -4 v -1 h -5 v -1 h -4 v -1 h -5 v -1 h -5 v -1 h -4 v -1 h -5 v -1 h -4 v -1 h -5 v -1 h -4 v -1 h -5 v -1 h -4 v -1 h -5 v -1 h -4 v -1 h -5 v -1 h -4 v -1 h -5 v -1 h -4 v -1 h -5 v -1 h -4 v -1 h -5 v -1 h -4 v -1 h -5 v -1 h -4 v -1 h -5 v -1 h -4 v -1 h -5 v -1 h -4 v -1 h -5 v -1 h -5 v -1 h -4 v -1 h -5 v -1 h -4 v -1 h -5 v -1 h -4 v -1 h -5 v -1 h -4 v -1 h -5 v -1 h -4 v -1 h -5 v -1 h -4 v -1 h -5 v -1 h -4 v -1 h -5 v -1 h -4 v -1 h -5 v -1 h -4 v -1 h -5 v -1 h -4 v -1 h -5 v -1 h -4 v -1 h -5 v -1 h -4 v -1 h -5 v -1 h -5 v -1 h -4 v -1 h -5 v -1 h -4 v -1 h -5 v -1 h -4 v -1 h -5 v -1 h -4 v -1 h -5 v -1 h -4 v -1 h -5 v -1 h -4 v -1 h -5 v -1 h -4 v -1 h -5 v -1 h -4 v -1 h -5 v -1 h -4 v -1 h -5 v -1 h -4 v -1 h -5 v -1 h -4 v -1 h -5 v -1 h -4 v -1 h -5 v -1 h -4 v -1 h -5 v -1 h -5 v -1 h -4 v -1 h -5 v -1 h -4 v -1 h -5 v -1 h -4 v -1 h -5 v -1 h -4 v -1 h -5 v -1 h -4 v -1 h -5 v -1 h -4 v -1 h -5 v -1 h -4 v -1 h -5 v -1 h -4 v -1 h -5 v -1 h -4 v -1 h -5 v -1 h -4 v -1 h -5 v -1 h -4 v -1 h -5 v -1 h -4 v -1 h -5 v -1 h -5 v -1 h -4 v -1 h -5 v -1 h -4 v -1 h -5 v -1 h -4 v -1 h -5 v -1 h -4 v -1 H 9 v -1" /></g></g></g><path
         id="path92"
         style="fill:#ffffff;fill-opacity:1;fill-rule:nonzero;stroke:none"
         d="m 2657.91,301.199 h 3.9 c 3.3,0 6.31,0.172 6.31,3.961 0,3.18 -2.74,3.68 -5.27,3.68 h -4.94 z m -3.74,10.66 h 9.29 c 5.71,0 8.4,-2.257 8.4,-6.871 0,-4.347 -2.75,-6.148 -6.31,-6.527 l 6.86,-10.609 h -4.01 l -6.54,10.32 h -3.95 v -10.32 h -3.74 z m 8.03,-29.558 c 9.5,0 16.85,7.578 16.85,17.629 0,9.84 -7.35,17.41 -16.85,17.41 -9.62,0 -16.98,-7.57 -16.98,-17.41 0,-10.051 7.36,-17.629 16.98,-17.629 z m 0,38.07 c 11.2,0 20.59,-8.851 20.59,-20.441 0,-11.809 -9.39,-20.649 -20.59,-20.649 -11.27,0 -20.72,8.84 -20.72,20.649 0,11.59 9.45,20.441 20.72,20.441" /></g></g></svg>